<?xml version="1.0" encoding="UTF-8" standalone="no"?>
<svg
   width="48"
   height="48"
   viewBox="0 0 12.7 12.7"
   version="1.1"
   id="svg5"
   xmlns:xlink="http://www.w3.org/1999/xlink"
   xmlns="http://www.w3.org/2000/svg"
   xmlns:svg="http://www.w3.org/2000/svg">
  <defs id="defs2">
    <linearGradient
       id="linearGradient3781">
      <stop
         style="stop-color:#000000;stop-opacity:0;"
         offset="0"
         id="stop3779" />
      <stop
         style="stop-color:#000000;stop-opacity:1;"
         offset="1"
         id="stop3777" />
    </linearGradient>
    <linearGradient
       xlink:href="#linearGradient3781"
       id="linearGradient3783"
       x1="0.041021347"
       y1="6.3433514"
       x2="12.601343"
       y2="6.3433514"
       gradientUnits="userSpaceOnUse" />
  </defs>
  <g id="layer1">
    <ellipse
       style="fill:#1e293b;fill-opacity:1;stroke:url(#linearGradient3783);stroke-width:0.134;stroke-miterlimit:4;stroke-dasharray:none;stroke-opacity:1"
       id="path513"
       cx="6.3211823"
       cy="6.3433514"
       rx="6.2801609"
       ry="6.2457776" />
    <g id="g6777">
      <g
         aria-label="D"
         transform="scale(1.0608436,0.942646)"
         id="text113"
         style="fill:#e2e8f0;stroke-width:0.729">
        <path
           d="m 2.249244,12.026423 v -0.61682 h 0.1909206 q 0.4993308,0 0.8517996,-0.176234 Q 3.644433,11.042448 3.644433,10.352197 V 3.1559586 q 0,-0.6461928 -0.367155,-0.8224272 Q 2.9248092,2.157297 2.4401646,2.157297 H 2.249244 V 1.5404766 h 4.4939773 q 2.276361,0 3.5246877,1.3658166 1.263014,1.3658166 1.263014,3.8624706 0,1.6007958 -0.54339,2.790378 -0.528703,1.1748962 -1.5861095,1.8210892 -1.0574064,0.646192 -2.6582022,0.646192 z m 4.1561947,-0.748996 q 1.7476578,0 2.6141436,-1.16021 0.881172,-1.1748956 0.881172,-3.3484532 0,-2.1882438 -0.8664858,-3.3337674 Q 8.1677827,2.2747866 6.4201249,2.2747866 H 5.1277393 v 9.0026404 z"
           id="path6770" />
      </g>
      <g
         aria-label="B"
         transform="scale(1.1201647,0.89272589)"
         id="text459"
         style="fill:#e2e8f0;stroke-width:0.837363">
        <path
           d="m 0.79189886,11.916256 v -0.535273 h 0.1656798 q 0.43331644,0 0.73918684,-0.152935 0.3058704,-0.16568 0.3058704,-0.764676 V 4.2185174 q 0,-0.5607624 -0.318615,-0.7136976 Q 1.3781505,3.3518846 0.95757866,3.3518846 H 0.79189886 V 2.8166113 H 4.2074517 q 1.6567981,0 2.4597079,0.5607625 0.8156544,0.5480178 0.8156544,1.720521 0,0.8538882 -0.4588056,1.3254384 -0.446061,0.4588056 -1.1215248,0.6754638 v 0.050978 q 0.8666328,0.1529352 1.4146506,0.7264423 0.5480178,0.5607624 0.5480178,1.5803304 0,2.4597083 -3.2753623,2.4597083 z M 4.1692179,6.8311604 q 1.1215249,0 1.5293521,-0.4078272 0.4205718,-0.4078272 0.4205718,-1.3254384 0,-0.9431004 -0.446061,-1.2872046 Q 5.2270198,3.4538414 4.1437287,3.4538414 H 3.2898405 v 3.377319 z m 0.3568488,4.4478656 q 1.0832911,0 1.5293521,-0.420572 0.446061,-0.420572 0.446061,-1.4401397 0,-0.9940788 -0.4205718,-1.465629 Q 5.6730808,7.4683904 4.5515559,7.4683904 H 3.2898405 v 3.8106356 z"
           id="path6767" />
      </g>
    </g>
  </g>
</svg>
